<?xml version="1.0" encoding="utf-8"?>
<!-- Generator: Adobe Illustrator 19.0.0, SVG Export Plug-In . SVG Version: 6.00 Build 0)  -->
<svg version="1.1" id="Layer_1" xmlns="http://www.w3.org/2000/svg" xmlns:xlink="http://www.w3.org/1999/xlink" x="0px" y="0px"
	 width="64px" height="64px" viewBox="-731 418.5 64 64" style="enable-background:new -731 418.5 64 64;" xml:space="preserve">
<style type="text/css">
	.st0{fill:#FFFFFF;}
</style>
<g>
	<g>
		<polygon class="st0" points="-701.3,418.5 -667,418.5 -667,452.8 		"/>
		<path class="st0" d="M-696.7,436.8l13.7-13.7c3-3,8.3-3.1,11.4,0c3.1,3.1,3,8.4,0,11.4l-13.7,13.7c-3,3-8.3,3.1-11.4,0
			C-699.8,445.1-699.7,439.8-696.7,436.8z"/>
	</g>
	<g>
		<polygon class="st0" points="-696.7,482.5 -731,482.5 -731,448.2 		"/>
		<path class="st0" d="M-701.3,464.2l-13.7,13.7c-3,3-8.3,3.1-11.4,0c-3.1-3.1-3-8.4,0-11.4l13.7-13.7c3-3,8.3-3.1,11.4,0
			C-698.2,455.9-698.3,461.2-701.3,464.2z"/>
	</g>
</g>
</svg>
