<?xml version="1.0" encoding="utf-8"?>
<!-- Generator: Adobe Illustrator 19.0.0, SVG Export Plug-In . SVG Version: 6.00 Build 0)  -->
<svg version="1.1" id="Layer_1" xmlns="http://www.w3.org/2000/svg" xmlns:xlink="http://www.w3.org/1999/xlink" x="0px" y="0px"
	 width="64px" height="64px" viewBox="-731 418.5 64 64" style="enable-background:new -731 418.5 64 64;" xml:space="preserve">
<style type="text/css">
	.st0{display:none;}
	.st1{display:inline;}
	.st2{fill:#FFFFFF;}
</style>
<g class="st0">
	<path class="st1" d="M-666.9,423.7l-10.7,10.7c-4.7,4.7-13,4.9-17.9,0c-4.9-4.9-4.7-13.1,0-17.9l10.7-10.7l-17.9-17.9h53.6v53.6
		L-666.9,423.7z"/>
	<path class="st1" d="M-713.3,470.1l17.9,17.9H-749v-53.6l17.9,17.9l10.7-10.7c4.7-4.7,13-4.9,17.9,0c4.9,4.9,4.7,13.1,0,17.9
		L-713.3,470.1z"/>
</g>
<g>
	<path class="st2" d="M-711.2,472.6l-5.9,5.9c-2.6,2.6-7.2,2.7-9.9,0c-2.7-2.7-2.6-7.3,0-9.9l5.9-5.9l-9.9-9.9h29.7v29.7
		L-711.2,472.6z"/>
	<path class="st2" d="M-676.9,438.3l9.9,9.9h-29.7v-29.7l9.9,9.9l5.9-5.9c2.6-2.6,7.2-2.7,9.9,0c2.7,2.7,2.6,7.3,0,9.9L-676.9,438.3
		z"/>
</g>
</svg>
